/* XPM */
static char *result[] = {
/* columns rows colors chars-per-pixel */
"64 64 184 2 ",
"   c #020102",
".  c #0C0105",
"X  c #0B0A0B",
"o  c #120106",
"O  c #1A0107",
"+  c #140108",
"@  c #1B010A",
"#  c #110F0E",
"$  c #160E05",
"%  c #14110F",
"&  c #141211",
"*  c #191614",
"=  c #1C1C1D",
"-  c #1F1B17",
";  c #23020A",
":  c #2B010A",
">  c #2E0D08",
",  c #34010B",
"<  c #3A020D",
"1  c #300D08",
"2  c #241907",
"3  c #2E0812",
"4  c #310111",
"5  c #3C0114",
"6  c #221D19",
"7  c #211B15",
"8  c #35260A",
"9  c #2B2413",
"0  c #1F1F20",
"q  c #2B2927",
"w  c #312D2A",
"e  c #3D342D",
"r  c #333334",
"t  c #42020D",
"y  c #4E010D",
"u  c #54010D",
"i  c #5D000F",
"p  c #460112",
"a  c #4C0211",
"s  c #4B0719",
"d  c #5B0114",
"f  c #550117",
"g  c #62000F",
"h  c #630212",
"j  c #6A0013",
"k  c #740013",
"l  c #7C0013",
"z  c #740019",
"x  c #7B001B",
"c  c #442C0B",
"v  c #4D390B",
"b  c #44330A",
"n  c #543C0B",
"m  c #431820",
"M  c #670121",
"N  c #790127",
"B  c #413830",
"V  c #793D3E",
"C  c #59420C",
"Z  c #6D450E",
"A  c #6D510E",
"S  c #7A4D10",
"D  c #72490F",
"F  c #574B3F",
"G  c #4E4E4E",
"H  c gray32",
"J  c #68594B",
"K  c #6F5F50",
"L  c #7D6B5A",
"P  c #716152",
"I  c #616161",
"U  c #69696A",
"Y  c #747474",
"T  c #7C7C7D",
"R  c #840014",
"E  c #86001C",
"W  c #8D001E",
"Q  c #890015",
"!  c #960016",
"~  c #9C0017",
"^  c #93001F",
"/  c #A40018",
"(  c #AB0019",
")  c #A00017",
"_  c #B7001A",
"`  c #B8001B",
"'  c #850027",
"]  c #950021",
"[  c #9C0020",
"{  c #90002E",
"}  c #990031",
"|  c #A40022",
" . c #AA0023",
".. c #AE002A",
"X. c #B50026",
"o. c #BB0026",
"O. c #B90B22",
"+. c #BB1D2E",
"@. c #A60035",
"#. c #A90035",
"$. c #BC003B",
"%. c #B90034",
"&. c #BD2B39",
"*. c #C30021",
"=. c #CB0026",
"-. c #C40028",
";. c #CD0029",
":. c #CE092E",
">. c #D4002B",
",. c #D8002F",
"<. c #DC0032",
"1. c #D40931",
"2. c #C31B33",
"3. c #E5003A",
"4. c #E9003D",
"5. c #E00035",
"6. c #855A11",
"7. c #945E13",
"8. c #8C6712",
"9. c #A87C15",
"0. c #B17116",
"q. c #A86B15",
"w. c #C37C18",
"e. c #CD0041",
"r. c #D40043",
"t. c #DB0044",
"y. c #ED0041",
"u. c #E60048",
"i. c #ED004A",
"p. c #F30046",
"a. c #F5004B",
"s. c #FD004E",
"d. c #FF0050",
"f. c #D2394D",
"g. c #CA2E42",
"h. c #816E5D",
"j. c #8A7664",
"k. c #D14F5A",
"l. c #D05F63",
"z. c #CF7D75",
"x. c #C5736A",
"c. c #BC8B17",
"v. c #B68716",
"b. c #CB8119",
"n. c #D8891B",
"m. c #C99518",
"M. c #C89418",
"N. c #D39C19",
"B. c #EC961D",
"V. c #F49B1D",
"C. c #D9A11A",
"Z. c #EBAE1C",
"A. c #E4A91B",
"S. c #F3B41D",
"D. c #FAB91D",
"F. c #98826E",
"G. c #A78F78",
"H. c #A28A74",
"J. c #AE957D",
"K. c #B4977F",
"L. c #CF8278",
"P. c #858585",
"I. c #888888",
"U. c #919191",
"Y. c #9C9C9C",
"T. c #B39981",
"R. c #BEA288",
"E. c gray68",
"W. c #BCBCBC",
"Q. c #B2B2B2",
"!. c #CC9B87",
"~. c #C7A98E",
"^. c #C9A68D",
"/. c #CCAE92",
"(. c #BFBFC0",
"). c #C4C4C4",
"_. c #CACACA",
"`. c #D4D4D4",
"'. c #DBDBDB",
"]. c #EBEBEB",
"[. c #E1E1E1",
"{. c #FDFDFD",
"}. c #F6F6F6",
"|. c None",
/* pixels */
"|.|.|.|.|.|.|.|.|.|.|.|.|.|.|.|.|.|.|.|.|.|.|.|.|.|.|.|.|.|.|.|.|.|.|.|.|.|.|.|.|.|.|.|.|.|.|.|.|.|.|.|.|.|.|.|.|.|.|.|.|.|.|.|.",
"|.|.|.|.|.|.|.|.|.|.|.|.|.|.|.|.|.|.|.|.|.|.|.|.|.|.|.|.|.|.    4 ;     |.|.|.|.|.|.|.|.|.|.|.|.|.|.|.|.|.|.|.|.|.|.|.|.|.|.|.|.",
"|.|.|.|.|.|.|.|.|.|.|.|.|.|.|.|.|.|.|.|.|.|.|.|.|.|.|.|.|.  4 r.d.d.i.@.5   |.|.|.|.|.|.|.|.|.|.|.|.|.|.|.|.|.|.|.|.|.|.|.|.|.|.",
"|.|.|.|.|.|.|.|.|.|.|.|.|.|.|.|.|.|.|.|.|.|.|.|.|.|.|.|.  . t.y.3.y.s.d.d.#.+ |.|.|.|.|.|.|.|.|.|.|.|.|.|.|.|.|.|.|.|.|.|.|.|.|.",
"|.|.|.|.|.|.|.|.|.|.|.|.|.|.|.|.|.|.|.|.|.|.|.|.|.|.|.|.  5 <.>.>.>.>.3.a.d.u.5   |.|.|.|.|.|.|.|.|.|.|.|.|.|.|.|.|.|.|.|.|.|.|.",
"|.|.|.|.|.|.|.|.|.|.|.|.|.|.|.|.|.|.|.|.|.|.|.|.|.|.|.|.  . X.>.>.>.>.>.>.y.d.a.f   |.|.|.|.|.|.|.|.|.|.|.|.|.|.|.|.|.|.|.|.|.|.",
"|.|.|.|.|.|.|.|.|.|.|.|.|.|.|.|.|.|.|.|.|.|.|.              , ;.>.>.>.>.>.>.<.s.d.M   |.|.|.|.|.|.|.|.|.|.|.|.|.|.|.|.|.|.|.|.|.",
"|.|.|.|.|.|.|.|.|.|.|.|.|.|.|.|.|.|.|.|.  @ N $.t.u.t.%.E h . < -.>.>.>.>.>.>.<.d.d.f   |.|.|.|.|.|.|.|.|.|.|.|.|.|.|.|.|.|.|.|.",
"|.|.|.|.|.|.|.|.|.|.|.|.|.|.|.|.|.|.|.  5 i.d.s.4.<.>.>.>.>.o., + ] >.>.>.>.>.>.<.s.a.4 |.|.|.|.|.|.|.|.|.|.|.|.|.|.|.|.|.|.|.|.",
"|.|.|.|.|.|.|.|.|.|.|.|.|.|.|.|.|.|.    r.d.y.>.>.>.>.>.>.>.>.>.z . p X.>.>.>.>.>.4.d.t.. |.|.|.|.|.|.|.|.|.|.|.|.|.|.|.|.|.|.|.",
"|.|.|.|.|.|.|.|.|.|.|.|.|.|.|.|.|.|.    e.p.>.>.>.>.>.>.>.>.>.>.>.o.u . f X.>.>.>.>.p.d.{   |.|.|.|.|.|.|.|.|.|.|.|.|.|.|.|.|.|.",
"|.|.|.|.|.|.|.|.|.|.|.|.|.|.|.|.|.|.|.  @ ] -.>.>.>.>.>.>.>.>.>.>.>.>.;.] d j | >.>.<.d.a.4 |.|.|.|.|.|.|.|.|.|.|.|.|.|.|.|.|.|.",
"|.|.|.|.|.|.|.|.|.|.|.|.|.|.|.|.|.|.|.|.|.    ; p d j x x x E | -.>.>.>.>.>.>.;.-.>.>.p.d.@.  |.|.|.|.|.|.|.|.|.|.|.|.|.|.|.|.|.",
"|.|.|.|.|.|.|.|.|.|.|.|.|.|.|.|.|.|.|.|.|.|.|.      : z | *.>.>.>.>.>.>.>.>.>.>.>.>.>.4.d.s.O   |.|.|.|.|.|.|.|.|.|.|.|.|.|.|.|.",
"|.|.|.|.|.|.|.|.|.|.|.|.|.|.|.|.|.|.|.|.|.|.    O W >.>.>.>.>.>.>.>.>.,.>.>.>.>.>.>.>.<.d.d.$.4     |.|.|.|.|.|.|.|.|.|.|.|.|.|.",
"|.|.|.|.|.|.|.|.|.|.|.|.|.|.|.|.|.|.|.|.|.    a ;.>.>.>.>.>.>.>.>.>.>.>.>.>.>.>.>.>.>.>.s.s.d.d.} +   |.|.|.|.|.|.|.|.|.|.|.|.|.",
"|.|.|.|.|.|.|.|.|.|.|.|.|.|.|.|.|.|.|.|.    k >.>.>.>.>.>.>.>.>.>.>.>.>.>.>.>.>.>.>.>.>.>.4.s.d.d.u.s     |.|.|.|.|.|.|.|.|.|.|.",
"|.|.|.|.|.|.|.|.|.|.|.|.|.|.|.|.|.|.|.  o Q >.>.>.>.>.>.>.>.>.>.>.>.>.>.>.>.>.>.>.>.>.>.>.>.,.p.d.d.d.{ .   |.|.|.|.|.|.|.|.|.|.",
"|.|.|.|.|.|.|.|.|.|.|.|.|.|.|.|.|.|.  o ! *.>.>.>.>.>.>.>.>.>.>.>.>.>.>.>.>.>.>.>.>.>.>.>.>.>.>.3.s.d.d.$.+   |.|.|.|.|.|.|.|.|.",
"|.|.|.|.|.|.|.|.|.|.|.|.|.|.|.|.|.  o ~ _ >.>.>.>.>.>.>.>.>.>.>.>.>.>.>.>.>.>.>.>.>.>.>.>.>.>.>.>.>.a.d.d.r.@   |.|.|.|.|.|.|.|.",
"|.|.|.|.|.|.|.|.|.|.|.|.|.|.|.|.  . ! ` *.>.>.>.>.>.>.>.>.>.>.>.>.>.>.>.>.>.>.>.>.>.>.>.>.>.>.>.>.>.>.y.d.d.t.O   |.|.|.|.|.|.|.",
"|.|.|.|.|.|.|.|.|.|.|.|.|.|.|.    R _ _ =.>.>.>.>.>.>.>.>.>.>.>.>.>.>.>.>.>.>.>.>.>.>.>.>.>.>.>.>.>.>.>.<.s.s.r.o   |.|.|.|.|.|.",
"|.|.|.|.|.|.|.|.|.|.|.|.|.|.|.  i ` _ ` >.>.>.>.>.,.>.>.>.>.>.>.>.>.>.>.>.>.>.>.>.>.>.>.>.>.>.>.>.>.>.>.>.<.s.s.$.  |.|.|.|.|.|.",
"|.|.|.|.|.|.|.|.|.|.|.|.|.|.  : _ ` _ *.>.>.>.>.>.>.>.>.>.>.>.>.>.>.>.>.>.>.>.>.<.>.>.>.>.>.>.>.>.>.>.>.>.>.>.a.d.'   |.|.|.|.|.",
"|.|.|.|.|.|.|.|.|.|.|.|.|.  . ~ _ _ _ =.>.>.>.>.>.>.>.>.>.>.>.>.>.>.>.>.>.>.>.>.>.>.>.>.>.>.>.>.>.>.>.>.>.>.>.>.a.s.5   |.|.|.|.",
"|.|.|.|.|.|.|.|.|.|.|.|.|.  g _ ` ` ` >.>.>.>.>.>.>.>.>.>.>.>.>.>.>.>.>.>.>.>.>.>.>.>.>.>.>.>.>.>.>.>.>.>.>.>.>.>.i.t.. |.|.|.|.",
"|.|.|.|.|.|.|.|.|.|.|.|.  O _ _ ` ` ` >.>.>.>.>.>.>.>.>.>.>.>.>.>.>.>. .p ;.>.>.>.>.>.>.>.>.>.>.>.>.>.>.>.>.>.>.>.>.a.N   |.|.|.",
"|.|.|.|.|.|.|.  |.|.|.|.  k ` _ ` ` *.>.>.>.>.>.>.>.>.>.>.>.>.>.>.>.o..   : -.>.>.>.>.>.>.>.>.>.>.>.>.>.>.>.>.>.>.>...a.+ |.|.|.",
"|.|.|.|.|.|.      |.|.  O _ ` _ ` ` =.>.>.>.>.>.>.>.>.>.>.>.>.>.>.>.,       O | >.,.>.>.>.>.>.>.>.>.>.>.>.>.>.>.;.j   #.'   |.|.",
"|.|.|.|.|.        |.|.  j _ _ _ _ ` ;.>.>.>.>.>.>.>.>.>.>.>.>.>.>.[             z >.>.>.>.>.>.>.>.>.>.>.>.>.>.X.4     ; u.o |.|.",
"|.    |.|.          |.. ( _ ` _ ` _ ;.>.>.>.>.>.>.>.>.>.>.>.>.>.>.p               , X.>.>.>.>.>.>.>.>.>.>.>.x .         @.N   |.",
"|.        |.|.        t ` ` ` _ ` ` >.>.>.>.>.>.>.>.>.>.>.>.>.>.>.d                 . x >.>.>.>.>.>.>.>.X.4             5 e.  |.",
"              |.      R _ _ _ _ _ _ >.>.>.>.>.>.>.>.>.>.>.>.>.>.>.>.[ ;                 @ ^ >.>.>.>.-.f                 a p.+ |.",
"                    . _ ` _ _ _ ` _ >.>.>.>.>.>.>.>.>.>.>.>.>.>.>.>.>.>.h =                 , | *.j .               < E >.4.p |.",
"                    , _ _ _ _ _ _ ` >.>.>.>.>.>.>.>.>.>.>.>.>.>.>.>.>.=.m ].'.I.r               .             =   R >.>.>.>.M   ",
"|.|.|.|.            g ` ` _ ` _ _ ` >.>.>.>.>.>.>.>.>.>.>.>.>.>.>.>.;.~ T {.{.{.{.'.P.r                 q Y ).{.I i *.>.>.>.'   ",
"|.|.|.|.|.|.        R _ ` _ ` _ ` ` >.>.>.>.>.>.>.>.>.=.=.>.>.>.>.>.` g W.{.{.{.{.'.Y.].'.P.w     X G (.{.{.{.{.(., _ =.>.>.^   ",
"|.|.|.|.            ~ _ _ _ _ _ _ ` >.>.>.>.>.>.>.>.*._ _ >.>.>.>.=.` y _.{.{.{.].#   r {.{.{.T T H X [.{.{.{.{.].o _ ` >.>.|   ",
"|.|.|.|.        |.  _ ` ` _ ` _ ` ` >.>.>.>.>.>.>.=._ _ _ ` >.>.>.*._ y Q.{.{.{.'.    r {.{.{.Y U.U X `.}.).Y.P.Y . _ _ =.>. .  ",
"|.|.|.|.    |.|.|.. _ _ ` _ _ _ _ _ >.>.>.>.>.>.>.=._ _ _ _ >.>.;.` _ j U {.{.{.{.).Y.].{.{._.= r W.`.U 3 a g k k k ~ ` *.>.|   ",
"|.|.|.|.|.|.|.|.|.o ` ` _ _ _ _ _ _ >.>.>.>.>.>.>.*._ _ _ _ *.>.=._ _ ) X W.).Y.T Y Y F.U.I v v.v.v X , _ _ _ _ _ _ _ _ ` >./   ",
"|.|.|.|.|.|.|.|.|.. ` ` ` _ ` _ ` ` =.>.*.=.>.>.>.*._ _ _ _ *.>.*.` _ ` , . t j Q ~ ~ 4 8 M.D.D.S.D.N.v : / _ _ ` _ _ ` *.>.]   ",
"|.|.|.|.|.|.|.|.|.  _ ` _ _ _ _ _ _ *.` _ _ ` >.>.*._ _ _ _ *.>.*._ _ _ ! _ _ _ _ ( , 8.S.D.D.D.D.D.D.D.9.$ l _ _ _ _ _ *.>.z   ",
"|.|.|.|.|.|.|.|.|.  ) ` ` _ ` _ ` ` _ _ _ _ _ >.>.*._ _ ` _ *.>.*.` _ ` ` _ _ _ / > v.D.D.D.D.D.D.D.D.D.D.C.2 u _ _ _ ` =.>.a   ",
"|.|.|.|.|.|.|.|.|.  Q ` ` _ ` _ ` ` _ ` _ _ _ =.>.=._ _ _ _ =.>.=.` ` ` ` _ _ ( > m.D.D.D.D.D.D.D.D.D.D.D.D.Z.b t _ _ *.>.>.:   ",
"|.|.|.|.|.|.|.|.|.  i ` _ _ _ _ _ _ _ _ _ _ _ =.>.>.*._ _ *.>.>.;.=.` ` _ _ _ : c.D.D.D.D.D.D.D.D.D.D.D.D.D.D.S.b u *.>.>.-.  |.",
"|.|.|.|.|.|.|.|.|.  , _ ` _ _ _ _ ` _ _ _ _ ` >.>.>.>.*.=.>.>.>.>.>.1.2.&.+.g C D.D.D.D.D.D.D.D.D.D.D.D.D.D.D.D.Z.2 [ >.>.E   |.",
"|.|.|.|.|.|.|.|.|.    ( ` _ ` _ ` ` _ _ _ _ >.>.>.>.>.>.>.1.f.l.L.!./././.~.% v Z.D.D.D.D.D.D.D.D.D.D.D.D.D.D.D.D.N.@ >.>.<   |.",
"|.|.|.|.|.|.|.|.|.|.  i _ _ _ _ _ _ _ _ _ ` *.>.>.>.>.k.L././././././././.J.X I 9 v S 9.m.Z.D.D.D.D.D.D.D.D.D.D.D.D.C E X.    |.",
"|.|.|.|.|.|.|.|.|.|.  . ( _ _ _ ` ` _ ` ` _ _ *.>.k.!.^./././././././././.G.q {.{.[.Q.I     $ 8 v A 8.c.Z.D.D.D.D.D.v.< y   |.|.",
"|.|.|.|.|.|.|.|.|.|.|.  t _ _ _ _ _ _ _ _ _ _ k.!././././././././././././.~.% [.{.Q.G 8 S 0.n.n.b.0.7.D c 8 A c.D.D.A..     |.|.",
"|.|.|.|.|.|.|.|.|.|.|.    k ` _ ` ` _ _ ` ` x./././././././././././././././.L r r n w.V.V.V.V.V.V.V.V.V.V.q.t d b M.S.    |.|.|.",
"|.|.|.|.|.|.|.|.|.|.|.|.    R ` ` ` _ ` +.!./././././././././././././././././.j.X 7.V.V.V.V.V.V.V.V.V.V.D i >.>.-.p C     |.|.|.",
"|.|.|.|.|.|.|.|.|.|.|.|.|.    R ` ` _ &.^./././././././././././././././././././.T.w Z B.V.V.V.V.V.V.b.8 V >.>.>.>.^     |.|.|.|.",
"|.|.|.|.|.|.|.|.|.|.|.|.|.      h ` &.^././././././././././././././././././././././.K 2 7.B.V.V.B.S 7 H./.g.>.>.W .   |.|.|.|.|.",
"|.|.|.|.|.|.|.|.|.|.|.|.|.|.      < K././././.~./././././././././././././././././././.J.e 2 6.6.2 B R././.z.>.x       |.|.|.|.|.",
"|.|.|.|.|.|.|.|.|.|.|.|.|.|.|.|.    X P ~././././././././././././././././././././././././.F.q * h././././.R.s       |.|.|.|.|.|.",
"|.|.|.|.|.|.|.|.|.|.|.|.|.|.|.|.|.      * L ~././././././././.~././././././././././././././././././././.L %     |.|.|.|.|.|.|.|.",
"|.|.|.|.|.|.|.|.|.|.|.|.|.|.|.|.|.|.|.      % J J././././././././././././././././././././././././.~.h.6       |.|.|.|.|.|.|.|.|.",
"|.|.|.|.|.|.|.|.|.|.|.|.|.|.|.|.|.|.|.|.          q K G./././././././././././././././././././.F.F %       |.|.|.|.|.|.|.|.|.|.|.",
"|.|.|.|.|.|.|.|.|.|.|.|.|.|.|.|.|.|.|.|.|.|.|.          % e J j.G.R./././././././.~.J.j.J e X         |.|.|.|.|.|.|.|.|.|.|.|.|.",
"|.|.|.|.|.|.|.|.|.|.|.|.|.|.|.|.|.|.|.|.|.|.|.|.|.                  X * 6 6 6 * X                 |.|.|.|.|.|.|.|.|.|.|.|.|.|.|.",
"|.|.|.|.|.|.|.|.|.|.|.|.|.|.|.|.|.|.|.|.|.|.|.|.|.|.|.|.|.                                |.|.|.|.|.|.|.|.|.|.|.|.|.|.|.|.|.|.|.",
"|.|.|.|.|.|.|.|.|.|.|.|.|.|.|.|.|.|.|.|.|.|.|.|.|.|.|.|.|.|.|.|.|.|.|.|.|.|.|.|.|.|.|.|.|.|.|.|.|.|.|.|.|.|.|.|.|.|.|.|.|.|.|.|."
};
