/* XPM */
static char *result[] = {
/* columns rows colors chars-per-pixel */
"64 64 249 2 ",
"   c black",
".  c #020202",
"X  c #040404",
"o  c gray2",
"O  c #060606",
"+  c #070707",
"@  c gray3",
"#  c #090909",
"$  c gray4",
"%  c #0B0B0B",
"&  c #0C0C0C",
"*  c gray5",
"=  c #0E0E0E",
"-  c gray6",
";  c #101010",
":  c #111111",
">  c gray7",
",  c #131313",
"<  c gray8",
"1  c #151515",
"2  c #161616",
"3  c gray9",
"4  c #181818",
"5  c #191919",
"6  c gray10",
"7  c #1B1B1B",
"8  c gray11",
"9  c #1D1D1D",
"0  c #1E1E1E",
"q  c gray12",
"w  c #202020",
"e  c gray13",
"r  c #222222",
"t  c #232323",
"y  c gray14",
"u  c #252525",
"i  c gray15",
"p  c #272727",
"a  c #282828",
"s  c gray16",
"d  c #2A2A2A",
"f  c gray17",
"g  c #2C2C2C",
"h  c #2D2D2D",
"j  c gray18",
"k  c #2F2F2F",
"l  c gray19",
"z  c #313131",
"x  c #323232",
"c  c gray20",
"v  c #343434",
"b  c #353535",
"n  c gray21",
"m  c #373737",
"M  c gray22",
"N  c #393939",
"B  c #3A3A3A",
"V  c gray23",
"C  c #3C3C3C",
"Z  c gray24",
"A  c #3E3E3E",
"S  c #3F3F3F",
"D  c gray25",
"F  c #414141",
"G  c gray26",
"H  c #434343",
"J  c #444444",
"K  c gray27",
"L  c #464646",
"P  c gray28",
"I  c #484848",
"U  c #494949",
"Y  c gray29",
"T  c #4B4B4B",
"R  c #4C4C4C",
"E  c gray30",
"W  c #4E4E4E",
"Q  c gray31",
"!  c #505050",
"~  c #515151",
"^  c gray32",
"/  c #535353",
"(  c gray33",
")  c #555555",
"_  c #565656",
"`  c gray34",
"'  c #585858",
"]  c gray35",
"[  c #5A5A5A",
"{  c #5B5B5B",
"}  c gray36",
"|  c #5D5D5D",
" . c gray37",
".. c #5F5F5F",
"X. c #606060",
"o. c gray38",
"O. c #626262",
"+. c gray39",
"@. c #646464",
"#. c #656565",
"$. c gray40",
"%. c #676767",
"&. c #686868",
"*. c DimGray",
"=. c #6A6A6A",
"-. c gray42",
";. c #6C6C6C",
":. c #6D6D6D",
">. c gray43",
",. c #6F6F6F",
"<. c gray44",
"1. c #717171",
"2. c #727272",
"3. c gray45",
"4. c #747474",
"5. c gray46",
"6. c #767676",
"7. c #777777",
"8. c gray47",
"9. c #797979",
"0. c gray48",
"q. c #7B7B7B",
"w. c #7C7C7C",
"e. c gray49",
"r. c #7E7E7E",
"t. c gray50",
"y. c #808080",
"u. c #818181",
"i. c gray51",
"p. c #838383",
"a. c #848484",
"s. c gray52",
"d. c #868686",
"f. c gray53",
"g. c #888888",
"h. c #898989",
"j. c gray54",
"k. c #8B8B8B",
"l. c gray55",
"z. c #8D8D8D",
"x. c #8E8E8E",
"c. c gray56",
"v. c #909090",
"b. c gray57",
"n. c #929292",
"m. c #939393",
"M. c gray58",
"N. c #959595",
"B. c gray59",
"V. c #979797",
"C. c #989898",
"Z. c gray60",
"A. c #9A9A9A",
"S. c #9B9B9B",
"D. c gray61",
"F. c #9D9D9D",
"G. c gray62",
"H. c #9F9F9F",
"J. c #A0A0A0",
"K. c gray63",
"L. c #A2A2A2",
"P. c gray64",
"I. c #A4A4A4",
"U. c #A5A5A5",
"Y. c gray65",
"T. c #A7A7A7",
"R. c gray66",
"E. c #A9A9A9",
"W. c #AAAAAA",
"Q. c gray67",
"!. c #ACACAC",
"~. c gray68",
"^. c #AEAEAE",
"/. c #AFAFAF",
"(. c gray69",
"). c #B1B1B1",
"_. c #B2B2B2",
"`. c gray70",
"'. c #B4B4B4",
"]. c gray71",
"[. c #B6B6B6",
"{. c #B7B7B7",
"}. c gray72",
"|. c #B9B9B9",
" X c gray73",
".X c #BBBBBB",
"XX c #BCBCBC",
"oX c gray74",
"OX c gray",
"+X c gray75",
"@X c #C0C0C0",
"#X c #C1C1C1",
"$X c gray76",
"%X c #C3C3C3",
"&X c gray77",
"*X c #C5C5C5",
"=X c #C6C6C6",
"-X c gray78",
";X c #C8C8C8",
":X c gray79",
">X c #CACACA",
",X c #CBCBCB",
"<X c gray80",
"1X c #CDCDCD",
"2X c #CECECE",
"3X c gray81",
"4X c #D0D0D0",
"5X c gray82",
"6X c #D2D2D2",
"7X c LightGray",
"8X c gray83",
"9X c #D5D5D5",
"0X c gray84",
"qX c #D7D7D7",
"wX c #D8D8D8",
"eX c gray85",
"rX c #DADADA",
"tX c gray86",
"yX c gainsboro",
"uX c #DDDDDD",
"iX c gray87",
"pX c #DFDFDF",
"aX c gray88",
"sX c #E1E1E1",
"dX c #E2E2E2",
"fX c gray89",
"gX c #E4E4E4",
"hX c gray90",
"jX c #E6E6E6",
"kX c #E7E7E7",
"lX c gray91",
"zX c #E9E9E9",
"xX c gray92",
"cX c gray93",
"vX c #EEEEEE",
"bX c #EFEFEF",
"nX c gray94",
"mX c #F1F1F1",
"MX c gray95",
"NX c #F3F3F3",
"BX c gray96",
"VX c #F6F6F6",
"CX c gray97",
"ZX c #F9F9F9",
"AX c gray98",
"SX c #FBFBFB",
"DX c #FDFDFD",
"FX c #FEFEFE",
"GX c white",
/* pixels */
"                                                                                                                                ",
"                                                                                                                                ",
"                                                                                                                                ",
"                                                                                                                                ",
"                                                                                                                                ",
"        - ;XH.J.9.P j B {.iXZ.U.!.Q.^.N.`.p.[.6.{.R...F 8 M 4.R.A.'.x.s.S.k.].<./ ` V : m K.sX_.K.m.I.N.).I.n.h.T.n.*X;         ",
"        & oXE.d.0.H d b `.NX|.t.E.l.(.j.D.S.D.k.v.`.a.m 8 Z { z.s.F.C.J.'.y.).u.v N D : m n.NXR.c.I.d.M.a.l.U.n.s.S.~.%         ",
"        , 4Xa.x.' B t g {.vXB.B.k.E./.D.b.2.n.x.`.d.' I 7 H D @.T.(.L.v.z.h.[.6.v N D : n L.cXP.L.a.v.h.^.s.r.E.j.G.3X=         ",
"        % /.C...L N , u H.>X/.Z.(.e.(.k.K.9.L.k.n.^...J : g _ P =.[ v V V V V V F 7 4 D z w.AX8Xf.Y.9.v.f.p.M.I.Z.v.N.#         ",
"        = R.%.Y U x u n w.bX&XN.~.b.z.c.c.c.c.t.[.5.] ,.& p K H N V V V V D 6 S 0 0 1 ! G H hX@Xa.c.z.m.D.G.k.p.R.n.*X;         ",
"        & a.I K V k 1 h ,.4XJ.U.M.b.5.v.g.}.4.].l.^.| ! f r K L d 7 q q q q 5 F 3 J - ( ~ G dXJ.b.L.k.R.a.k.u.-.&.X.<.@         ",
"        O ` A 4 q 7 g N W ,X;Xu.D.e.9.,.[.A.z.t.q.b.$...s r J I U K @.9.d.!.A.W./.L.6.s ! U 2Xi.$.2.o.O.o.^ ^ ( U U ) o         ",
"        . r p v p k u E n _.hXB.k.l.S.K.q.l.{.:.M.`.i.F h t B ! V.Q.%XyXMXqX5XpXL.&.' # | J F.+.#.{ W I P D N V V D s           ",
"        O G 3 s x i C P C a.iXC.Q.g.4.h.{.k.e.K.z.u.;.L l 3 8 1. X6XpX=Xp.T.z._.s.e.b , F V V V V V V V V A d 7 q q u .         ",
"        o L V V V V M H G <.&XXXe.W.K.i.4.V.2.n.'.a.K ) f t c -.rX3X/.N.l.b.u.x.G.T V < J 3 e Z 3 a m 3 j g j H C B L o         ",
"        o L V V A f u E P _ $Xx.U.J.f.(.N.].5.].r.Q.J 4.v , u 5.hX6Xn.w.T.v./.q.@XE B , S U ] ^ } K e Q U K U I L P ( O         ",
"        = [.v.C.b.!. .+ J C E.:XH.v.w.D.U.@.N.c.v.z.o._ J : u 5.xX'.0.I.'.y.Q.v.D.T V > B 1..XnXXXV H X.c.J.n.N.D.F.!.%         ",
"        > ZX:X2X'.V._ 0 D K 4.oXv.~.M.3.b.b.q.{.f.&.m.o.N , u 0.>X|.!.C.q.W.z._.k._ B ; b %XyX,Xh.$ ) G.9XrXaXaX8XtXGX,         ",
"        ; *Xv.[.m.-.} 8 A I X.M.'.e.W.].3.OXO.Z.o.^ 5.Q Z , u 0.>XoXS.<.>.5.<.~ ` ' V - c VX*XR.$.; #.XXiX&X].~._.}.rX-         ",
"        $ _.Y.p.p.,.} 0 x ) V z.S.3.3.&.q.T Q q.I 9.W C 3 7 0 :.U.8.g.t.F m V V V V D $ @.FXG.b.8.& X.-X5XY.H.R.m.T.).$         ",
"        : $Xa.}.B.} Y r x ) K @._ _ ^ [ J L U B 4 q q q q q : _ B.W v S y 8 q q q q 0 : @.DXL.~.$.; #.#X<XN.B.g.m.b.[.=         ",
"        $ _.Y.i.k.O.J t x ) ^ q B 7 D 9 0 q q q q q q q q 7 d C I U i 8 q q 5 F 0 3 K X P.MXK./.2.*  .{.Q.v.I.R.m.T.).$         ",
"        # N.v.F.S.} Y t d Y ] ! F q 9 q q q q 9 q ' U R W Y D &.C.j.K._.M.l.m.i.X.= B +.;XxXG.y.#., } R.:Xc.z.M.A.a.`.=         ",
"        # m.D.T.6._ D u e X.3XjXsX0X<XT.).m.` l E -.s._.!.OX=X6XdXaX9XrXaXfX5XU.2.& k q.AX#XN.^._ < [ K..XL.z.Y.j.P._.$         ",
"        : *Xr.N.y.~ J u 1 R.uX'.z.C.V.`.g.(.e ~ K g.zXmXiXwXXX_.#XXX$X|.*X{.wX,. .- f C.CXJ.Z.x./ 5 ^ A.).n.H.h.Z.M.F.$         ",
"        $ _.R.0.%.J V p ,  XXXh.N.Q._.h.Z.>X  } K ).cX].v.F.x.!.d.A.L.R.K.b.g.:.R : f B.GXA.u.~.N w U @.c.$.' / Q O.w.@         ",
"        + 4.#.E D N A p 1 ~.$XT.`.w.(.f.#X[ # ^ F [.CXZ.H.Y.w.x.].D.u.s.~.i.{.} T : j s.GXF.~.f.A i I e Z F I P L Y ) o         ",
"        o L Z x 6 q q 6 2 OXK.K.c.R._.b.r.@.# ^ F }.vX9.E.l.R.Z.f.u.u.W.B.l.D.Q ^ : f V.GX-.[.s.b i [ g 6 q q q q q u .         ",
"        . u q 8 g h l ~ l }.;XG.w.~.h.{.q.@.% Z J {.NX0.A.K.a.a.s.i.g.d.d.~.H.W ^ : h s.GXF.Q.0.D u ` n V V V V S w S O         ",
"        O a.Z.A.f.d.A.;.+ R.7X<.N.k.'.y.h.=.x > Y R.SXZ.s.f.d.a.a.y.Q.d.h.r. X` T > f V.GX8.[.I.l u } D D T ^ Q ( ( O.+         ",
"        , GX8XuX6X5X+XM.6 P.:X^.g.4.g.{.a.*.x > T U.xXQ.v.Z.J.H.c.>.l.r.a.(.v.[ Z , g A.zXr.N.W.z 4 =.3XgX;XP.;.` U / O         ",
"        : vX&X(.W.L./.5.  .X{.z.`.9.d._.U.%.G ; Q k.gX$XA.p.i.r.f.1.H.B.W.j.k./ Z , f C.CXJ.l.l.B > h.6X5.H.7XhX8XtXGX,         ",
"        = 3XG.j.I.S.F.u.8 `.+XY.z.R.].5.@X@.I > B ] hXeXP.Y.v.H.m.F.c.2.s.].5.] A > z Z.lXy.`.s.n , g.eX8.N.].c.i.Q.).$         ",
"        = _.h.Y.C.Z.C.F.3 `.-Xq.m.).g.].a.#.) ; 6 +.:XvXJ.Y.m.c.u.f.p.<.R.x.0.I A - H B.jXP.Q.0.F ; i.fXR.M.y.L.'.a.$X:         ",
"        $ ).T.n.'.v.C.a.@ T.:XY.(.v.z.g.@X| W : Z ~ !.VX!.D.A.A.i.S.s.L.n.'.=.T < C h Z.lXz.m.W.z 1 q.7XB.Z.'.c.i.Q.).$         ",
"        ; -Xg.n.S.Y.H.:.; I.uXw.Z.4.W.(.T./ } ; 9 Q u.sX).K.r.j.v.s.A.m.z.C.*.A 7 , H B.lXp.!.F T < q.5XF.I.C.I.c.p.;X;         ",
"        $ /._.J.C.Z.D.d.= h.ZXv.x.).c.z.A._ } ; 0 W  .0XyXv.v.H.G.Z.U.x.v.1._ D 1 B Z u.XX2.J n B z o.+XS.S.Y.l.Y.Z.D.$         ",
"        - >Xn.V.L.A.E.>.: w.BXd.Y.a.z.g.+Xo.] ; 9 A ' P.oXK.s.,.o.' U T A N V F 2 C V o.v V B B J n n 3.J T ` ( _ ( O.+         ",
"        $ /.`.S.v.B.V.f.< #.tX/.<.T.[.w.C.&.] ; 9 H ! / J.t._ Q G a 7 q q q q q 4 V I ^ J L ! ( _ ' L 2 q q q q q q u .         ",
"        * T.a.Y.J.S.K.:.w P wX+XN.).y.g.@X| Q , 8 r ' K j i v 7 q 6 n y M y 3 F 3 V P ) ] H P T L L I Y P D N V V V L o         ",
"        = 3XJ.u.T.G.I.s.q i aXW.N.v.g.{.a.#.) : 0 F U I H N V V M K U T A R E K R L H [ W p.q.q.q.q.q.q.q.q.q.q.q.q.n.$         ",
"        & R.C.J.z.E.w.+.f 4 0X>Xc.p.5.h.+Xo.] > 9 0 U 2.r.q.q.q.q.q.q.q.q.q.q.6.v.c.l.S.^.}.W.:X}.&X X%X_.#XoX$X X&XiX=         ",
"        = 2XL.N.L.K.g.a : u tX|.a./.c.v.g.@.` n 3 8 H V.2X.X#XOXOXOX,X}.*X{.;X'.,X^.9XsXuXMXbXbXbXbXbXbXbXbXNXrXrX0XSX>         ",
"        $ ).T.n.`.H.,.j s t 9XR.W.7.G.8.#X| R M 4 5 u S.4X8XBXbXbXmXgXrXxXNXyXvXbXbXbXmXtXpX6X3X).].oX&X~.~.&XOX_.=XiX=         ",
"        ; *Xm.P.y.C.6.a s g &X@X/.w.(.z.A._ ] n 4 5 u S.9X+XXX+X+XXX&X)./.,XQ._.<X].|.R.!.C.A.j.B.Y.V.G.i.l.U.z.J.m.*X;         ",
"        $ _.R.8.;.1.-.h a j @XA.i.`.0.`.M.%._ n 4 6 r y.7XyXJ.j.d.g.v.j.!.i.U.`.z.k.Z./.!.!.d.w.Z.g.`.T.g.C.S.F.(.J.Q.%         ",
"        - >XA.e.R ' N , z b G.oXa.d._.v.a.6.Q m 4 8 6 #.kXeXJ.h.k.I.Z.V.v.N.`.u.k.Z./.(.7.J.z.D.x.h.7.z.J.v.P.z.J.m.*X;         ",
"        & z.Q / _ ' b p Z j s.H.).p.z.V.$.=.^ m 4 q , N uXhX#XW.m.s.v.n.q.z.w.(.k.K.5.}.Z.3.p.V.R.w.D.T.p.<.s.y.b.M.E.&         ",
"        . w f ..~ { M i A S 4.,.} $.*.} :.Q ` m 4 9 6 ^ :XaX|.0.A.A.U.x.p.~.B.9.2.H.J.7.].h./.f.V.U.i.f.y.m.i.H.H.3.V.&         ",
"        O ) x 6 q 7 g Z A C B V V V V V V V V C 4 q 2 k {.0X).D.f.U.l.I.a.k.y.K.2.K.j.K.<.[.w.z.0.n.v.s.B.I.e.s.m.f.m.$         ",
"        O ( I T K h 3 g Y F A t 9 q q q q q q q q 9 9 R A.x.$.5.:.>.5.o.L.b.T.].e.M.5.i.n.x.7.b.V.L.k.Y.f.L.N.d.v.l.{.=         ",
"        = <X~.L.x.u./ L / H Z t 3 S q 3 L 4 7 G 6 Z 7 L ) F C d j s c q J 5.*.6.N.8.0.q.q.q.q.q.q.q.q.q.q.q.q.q.q.q.n.$         ",
"        : FXuX8XhX3XQ.~.H.5...] W B B V V V V V V B N K _ K G N V V V S 8 F ) ^ ' ~ ' ~ ' ^ ` ^ ^ ( _ ( ) ~ ) ( _ ( O.+         ",
"        = 2XK.n.=XyXaXgX-XW.E.Q.Q.Q.Q.^.S.l.v.y.0.0.%.&...Q ~ J I D K A S 9 Z 6 G 1 L < H 5 A 0 V 5 q q q q q q q q u .         ",
"        = <XE./.{.Z.V./.5XfXsX6XpX5XsX3XaXpXpXaX$X9X%X).R.Q.Q.(.F.{ R E C B V V V V V V Z 3 e V w n u z d g k p v r S O         ",
"        : $Xg.I.:.b.Q.N.9.J.j.Y.c.^.h.!.].2.{.d.).E.~.1XeXyX8X<XK.Q N W E P U B B F > F V V V V V V V V V V V V V V L o         ",
"        = <X~.J.V.P.k.z.m.^.l.a._.y.=.j..X;.M.r.m.Q.i.W.b./.(.V.4.b i E V B.8XnXG.y.D Y J ) / ~ K J D I I F G U S J ) O         ",
"        : $Xg.I.,.d.!.v.V.).P.f.<._.7.m.<.Y.8.].j.~.v.I.d.`.W.p.} h d L f 9X{.D.dXaXdXqX|.Z R ^ 6XkXrX9XaXaXwX7X3X`.|.&         ",
"        # 9.X.#.o.+.o.*.X.#.X.@.*.| &.} *.{ *.%.| %...$.X.@.O.o._ I e j g -X&XY. XY.|.|.+XU ! b.gXn.(.F.D.M.V.L.E.b.*X;         ",
"        o L V V V V V V V V V V V V V V V V V V V V V V V V V V V S a < j ^.(.[.oXU.J ~.u.} K 2XK.M.H.k.(.(.z.D.B.E.I.@         ",
"                                                                                                                                ",
"                                                                                                                                ",
"                                                                                                                                ",
"                                                                                                                                "
};
