/* XPM */
static char *result[] = {
/* columns rows colors chars-per-pixel */
"64 64 229 2 ",
"   c #29752E",
".  c #29762E",
"X  c #29772E",
"o  c #2A772F",
"O  c #2A782F",
"+  c #2A792F",
"@  c #2B7930",
"#  c #2B7A30",
"$  c #2B7B30",
"%  c #2B7C31",
"&  c #2C7C31",
"*  c #2C7D31",
"=  c #2C7E32",
"-  c #2D7E32",
";  c #2D7F32",
":  c #2D7F33",
">  c #357131",
",  c #367132",
"<  c #317A32",
"1  c #327B33",
"2  c #65583B",
"3  c #67583C",
"4  c #69593D",
"5  c #695A3D",
"6  c #6A5A3D",
"7  c #6D5D3F",
"8  c #456734",
"9  c #476634",
"0  c #417336",
"q  c #467739",
"w  c #4A733A",
"e  c #50733C",
"r  c #50783D",
"t  c #6F5F41",
"y  c #577940",
"u  c #656E43",
"i  c #726143",
"p  c #766646",
"a  c #7B6A49",
"s  c #7F6D4B",
"d  c #7C6E4B",
"f  c #607141",
"g  c #6F7749",
"h  c #6B7B48",
"j  c #757149",
"k  c #7E794F",
"l  c #816E4C",
"z  c #816F4D",
"x  c #82704D",
"c  c #83704D",
"v  c #84714F",
"b  c #857250",
"n  c #867250",
"m  c #887451",
"M  c #897551",
"N  c #897651",
"B  c #8A7752",
"V  c #8B7752",
"C  c #8C7853",
"Z  c #8D7853",
"A  c #8C7854",
"S  c #8D7954",
"D  c #8E7A54",
"F  c #8E7A55",
"G  c #8F7A55",
"H  c #8F7B55",
"J  c #8F7B56",
"K  c #8D7E56",
"L  c #907B56",
"P  c #907C56",
"I  c #917C57",
"U  c #917D57",
"Y  c #927D57",
"T  c #927E58",
"R  c #937E58",
"E  c #937F58",
"W  c #947F58",
"Q  c #947F59",
"!  c #957F59",
"~  c #2D8032",
"^  c #2D8033",
"/  c #2E8033",
"(  c #2E8133",
")  c #2E8134",
"_  c #2E8234",
"`  c #2E8334",
"'  c #2F8334",
"]  c #2F8434",
"[  c #2F8535",
"{  c #308535",
"}  c #308636",
"|  c #308736",
" . c #318736",
".. c #318836",
"X. c #318937",
"o. c #318A37",
"O. c #328B37",
"+. c #328A38",
"@. c #328C38",
"#. c #338D39",
"$. c #338E39",
"%. c #338F39",
"&. c #348F3A",
"*. c #34903A",
"=. c #35923B",
"-. c #35933B",
";. c #35943B",
":. c #35933C",
">. c #36923C",
",. c #36933C",
"<. c #36943C",
"1. c #36953C",
"2. c #36953D",
"3. c #37973D",
"4. c #38973E",
"5. c #37983D",
"6. c #37983E",
"7. c #37993E",
"8. c #38983E",
"9. c #38993E",
"0. c #38993F",
"q. c #389A3E",
"w. c #399A3F",
"e. c #389B3F",
"r. c #399B3F",
"t. c #399C3F",
"y. c #399D3F",
"u. c #399B40",
"i. c #399C40",
"p. c #399D40",
"a. c #3A9C40",
"s. c #3A9D40",
"d. c #3A9D41",
"f. c #399E40",
"g. c #3A9E40",
"h. c #3A9F40",
"j. c #3A9E41",
"k. c #3B9E41",
"l. c #3A9F41",
"z. c #3B9F41",
"x. c #3B9F42",
"c. c #3AA041",
"v. c #3BA141",
"b. c #3BA042",
"n. c #3BA142",
"m. c #3BA242",
"M. c #3CA042",
"N. c #3CA142",
"B. c #3CA242",
"V. c #3CA342",
"C. c #3CA243",
"Z. c #3CA343",
"A. c #3DA343",
"S. c #3CA443",
"D. c #3CA543",
"F. c #3DA543",
"G. c #3DA643",
"H. c #3DA444",
"J. c #3DA544",
"K. c #3FA545",
"L. c #3DA644",
"P. c #3DA744",
"I. c #3FA645",
"U. c #3EA745",
"Y. c #3FA745",
"T. c #3FA746",
"R. c #3EA844",
"E. c #3EA845",
"W. c #3FA845",
"Q. c #3EA945",
"!. c #3EAA45",
"~. c #3FAA45",
"^. c #3FAA46",
"/. c #3FAB46",
"(. c #3FAC46",
"). c #40A846",
"_. c #40A946",
"`. c #40A947",
"'. c #40AA47",
"]. c #41AA47",
"[. c #40AB47",
"{. c #41AB47",
"}. c #40AC47",
"|. c #41AC47",
" X c #40AD47",
".X c #41AB48",
"XX c #41AC48",
"oX c #41AD48",
"OX c #42AD48",
"+X c #41AE48",
"@X c #41AF48",
"#X c #42AE48",
"$X c #42AE49",
"%X c #42AF49",
"&X c #43AF49",
"*X c #42B049",
"=X c #43B049",
"-X c #43B04A",
";X c #43B14A",
":X c #43B24A",
">X c #43B34A",
",X c #44B24A",
"<X c #44B24B",
"1X c #44B34B",
"2X c #44B44B",
"3X c #45B44C",
"4X c #45B54C",
"5X c #958058",
"6X c #958059",
"7X c #95805A",
"8X c #96815A",
"9X c #97815A",
"0X c #97825B",
"qX c #99835B",
"wX c #A0895F",
"eX c #A18A60",
"rX c #A28B60",
"tX c #A28B61",
"yX c #A38C61",
"uX c #A48C62",
"iX c #A58D62",
"pX c #A68E63",
"aX c #A68F63",
"sX c #A78F63",
"dX c #A78F64",
"fX c #A79064",
"gX c #A89064",
"hX c #A99165",
"jX c None",
/* pixels */
"jXjXjXjXjXjXjXjXjXjXjXjXjXjXjXjXjXjXjXjXjXjXjXjXjXjXjXjXjXjX  . .   jXjXjXjXjXjXjXjXjXjXjXjXjXjXjXjXjXjXjXjXjXjXjXjXjXjXjXjXjXjX",
"jXjXjXjXjXjXjXjXjXjXjXjXjXjXjXjXjXjXjXjXjXjXjXjXjXjXjXjX. | h././.g.| . jXjXjXjXjXjXjXjXjXjXjXjXjXjXjXjXjXjXjXjXjXjXjXjXjXjXjXjX",
"jXjXjXjXjXjXjXjXjXjXjXjXjXjXjXjXjXjXjXjXjXjXjXjXjX  O $.G. X X X X X XG.$.O   jXjXjXjXjXjXjXjXjXjXjXjXjXjXjXjXjXjXjXjXjXjXjXjXjX",
"jXjXjXjXjXjXjXjXjXjXjXjXjXjXjXjXjXjXjXjXjXjXjX  % ;.Q. X X X X X X(. X X XQ.;.%   jXjXjXjXjXjXjXjXjXjXjXjXjXjXjXjXjXjXjXjXjXjXjX",
"jXjXjXjXjXjXjXjXjXjXjXjXjXjXjXjXjXjXjXjXjX  ^ 9./. X X X X X X X/.j.n.~. X X X/.9.^   jXjXjXjXjXjXjXjXjXjXjXjXjXjXjXjXjXjXjXjXjX",
"jXjXjXjXjXjXjXjXjXjXjXjXjXjXjXjXjXjXjX  ^ :.E. X X X X X X X X X(.J.n.E. X X X X X(.h.'   jXjXjXjXjXjXjXjXjXjXjXjXjXjXjXjXjXjXjX",
"jXjXjXjXjXjXjXjXjXjXjXjXjXjXjXjXjX  ..i.b.n./. X X X X(.Q.(. X X X X X X X X X X X X XL.2._   jXjXjXjXjXjXjXjXjXjXjXjXjXjXjXjXjX",
"jXjXjXjXjXjXjXjXjXjXjXjXjXjXjXX @.D. X X X X X X X X X^.d.Z. X X X X X X X X X X X X X(.S.l.0.X.X jXjXjXjXjXjXjXjXjXjXjXjXjXjXjX",
"jXjXjXjXjXjXjXjXjXjXjXjX  O %.P. X X X X X X X X X X X X/.(. X X X X X X X!.m.Q. X X X X X X X XP.%.O   jXjXjXjXjXjXjXjXjXjXjXjX",
"jXjXjXjXjXjXjXjXjXjX  # $.Q. X X X X X X X X X X X X X X X X X X X X X X X/.B.E. X X X X X X X X X X!.<.& . jXjXjXjXjXjXjXjXjXjX",
"jXjXjXjXjXjXjXjX. ] t.Z.d.J. X X X X X X X X X X X X X X X X X X X X X X X X X X X X X X X X X X X X X X(.t.] . jXjXjXjXjXjXjXjX",
"jXjXjXjXjXjXo o.S. X X}.^.(. X X X X X X X X X X X X X X X X X X X X X X X X X X X X X X X X X(.Q./. X X(.Q.(.S.o.o jXjXjXjXjXjX",
"jXjXjXjXjX  y. X X X X X X X X X X(.(. X X X X X X X X X X X X X X X X X X X X X X X X X X X XQ.d.j.(. X(.l.E. X Xy.  jXjXjXjXjX",
"jXjXjXjXjX. ..v.(. X X X X X X X XE.j./. X X X X X X X X X X X X X X X X(.(. X X X X X X X X X}.Q.E. X X X(.}./.q...o jXjXjXjXjX",
"jXjXjXjXjX= m.[ ( q.(. X X X X X X(.^.(. X X X X X X X/.S.(. X X X X X/.j.j./. X X X X X X X X X X X X X XR.=.{ u.<X: jXjXjXjXjX",
"jXjXjXjXjX-  X XS.$.` e.(. X X X X X X X X X X X X X X(.L.(. X X X X X(.d.d.n.~. X X X X X X X X X X XV.O.} N.2X4X4X: jXjXjXjXjX",
"jXjXjXjXjX-  X X X X!.1.] 6.(. X X X X X X X X X X X X X X X X X X X X(.j.d.d.m. X X X X X X X X Xv.| +.Y.2X4X4X4X4X: jXjXjXjXjX",
"jXjXjXjXjX-  X X X X X X/.5.o.7.(. X X X X X X X(.(. X X X X X X X X X X(.L.S.^. X X X X X X XS.o.&.|.1X2X4X4X4X4X4X: jXjXjXjXjX",
"jXjXjXjXjX;  X X X X X X X X(.g.$.1.Q. X X X X Xb.l.(. X X X X X X X X X X X X X X X X X XF.$.,.%X4X2XI.XX4X4X4X4X4X/ jXjXjXjXjX",
"jXjXjXjXjX;  X X X X X X/.Q. X X XF.=.-.Q. X X X/.^. X X X X X X X X X X X X X X X X XD.*.8.;X4X4X4X2XK.{.4X4X4X4X%X; jXjXjXjXjX",
"jXjXjXjXjX;  X X X X X XL.b. X X X X X/.p.V.(. X X X X X X X X X X X X X X X X X XS.<.s.1X4X4X4X4X4X4X1X2X4X4X4X2XI.- jXjXjXjXjX",
"jXjXjXjXjX;  X X X X X X/.Q. X X X X X X X(.(. X X X X X X X X X X X X X X X(.n.9.A.2X4X4X4X4X4X4X4X4X4X4X4X4X4X2XT.- jXjXjXjXjX",
"jXjXjXjXjX;  X X X X X X X X X X X X X X X X X X X X(.E.n.b./. X X X X X X~.z.[.4X4X4X4X4X4X4X4X4X4X4X4X4X4X4X4X4X1X/ jXjXjXjXjX",
"jXjXjXjXjX~  X X/.(. X X X X X X X X X X X X X X X X^.d.d.j./. X X X X+X:X2X4X4X4X4X4X4X;X;X4X4X4X4X4X4X4X4X4X4X4X4X( jXjXjXjXjX",
"jXjXjXjXjX~  X(.j.Z. X X X X X X X X X X X X X X X X/.d.d.^. X X X@X>X4X4X4X4X4X4X4X4X4X_.K.2X4X4X4X4X4X4X4X4X4X4X4X( jXjXjXjXjX",
"jXjXjXjXjX^  X(.j.S. X X X X X X X X X X X X X X X X(.n.b.(. X X*X4X4X4X4X4X4X4X4X3X=X4X].I.2X4X4X4X4X4X4X$X$X2X4X4X( jXjXjXjXjX",
"jXjXjXjXjX~  X X/.(. X X X X X X X X X X X}. X X X X X(.(. X X X2X4X4X3X4X4X4X4X4X2XXX3X2X1X4X4X4X4X4X4X2XI.K.&X4X4X( jXjXjXjXjX",
"jXjXjXjXjX~  X X X X X X X X X X X X X XE.l.Q. X X X X X X X X X2X4XOX'.4X4X4X4X4X4X4X4X4X4X4X4X4X4X4X4X2XK.K.XX4X4X( jXjXjXjXjX",
"jXjXjXjXjX;  X X X X X X X X X X X X X Xn.d.S. X X X X X X X X X2X4X'.).4X4X4X4X4X4X4X4X4X4X4X4X4X4X4X4X2XK.K.;X4X4X( jXjXjXjXjX",
"jXjXjXjXjX;  X X X X X X X X X X X X X Xn.d.b.(. X X X X X X X X3X4X1X<X4X4X4X4X4X4X4X4X4X4X4X4X4X4X4X4X2XI.OX4X4X4X( jXjXjXjXjX",
"jXjXjXjXjX;  X X X X X X X X X X X X X X!.b.d.P. X X X X X X X X3X4X4X4X4X4X4X4X4X4X4X4X4X4X4X4X4X4X4X4X4X2X2X4X4X4X( jXjXjXjXjX",
"jXjXjXjXjX;  X X X X X X X X X X X X X X XE.z./. X X X X X X X X3X4X4X4X4X4X4X4X4X4X4X4X4X2X].2X4X4X4X4X4X4X4X4X4X4X( jXjXjXjXjX",
"jXjXjXjXjX;  X X X X X X X X^.E. X X X X X X(. X X X X(.L. X X/.2X4X4X4X4X4X4X4X4X4X4X4X4X;XK.,X4X4X4X4X4X4X4X4X4X4X( jXjXjXjXjX",
"jXjXjXjXjX;  X(.m.S.}. X X XZ.b. X X X X X X X X X X X^.b. X XS.;X4X4X4X2XOX-X4X4X4X4X4X4X2X,X4X4X4X4X4X4X4X4X4X4X4X( jXjXjXjXjX",
"jXjXjXjXjX;  XE.d.d.^. X X XE.S. X X X X X X X X X X X(.(. X Xv.oX4X4X4X=XK.`.4X4X4X4X4X4X4X4X4X4X4X4X4X4X4X4X4X4X4X( jXjXjXjXjX",
"jXjXjXjXjX;  XP.d.d.E. X X X X X X X X X/.}. X X X X X X X X Xc.[.4X4X4X%XK.T.4X4X4X4X4X4X4X4X4X4X4X4X4X4X4X4X4X4X4X( jXjXjXjXjX",
"jXjXjXjXjX;  XE.d.d.!. X X X X X X X X/.d.^. X X X X X X X X Xc.W.4X4X4X2X).XX4X4X4X4X4X4X4X4X4X4X4X4X4X4X4X4X4X1X;X( jXjXjXjXjX",
"jXjXjXjXjX~  X(.P.P.(. X X X X X X X XS.m.(. X X X X X X X X Xc.A.4X4X4X4X4X4X4X4X4X4X4X4X4X4X4X4X4X;XI.<X4X4X4X].).( jXjXjXjXjX",
"jXjXjXjXjX^  X X X X X X X X X X X X X^.(. X X X X X X X X X Xc.M.4X4X4X4X4X4X4X4X4X4X4X4X4X4X4X4X4X%XK.XX4X4X4X&X$X_ jXjXjXjXjX",
"jXjXjXjXjX~  X X X X X X X X X X X X X X X X X X X^.Q. X X X Xc.b.4X4X4X4X4X4X1X-X3X4X4X4X4X4X4X4X4X2X.X-X4X4X4X4X4X) jXjXjXjXjX",
"jXjXjXjXjX. D. X X X XE.E. X X X X X X X X X X X(.l.l.}. X X Xc.x.4X4X4X4X4X4XOXK.<X4X4X4X4X4X4X4X4X4X4X4X4X4X4X4XXXX jXjXjXjXjX",
"jXjXjXjXjXjX( Q. X X XU.P. X X X X X X X X X X X/.d.C. X X X Xc.x.4X4X4X4X4X4X1X#X2X4X4X4X4X4X4X4X4X4X4X4X4X4X4X-X' jXjXjXjXjXjX",
"jXjXjXjXjXjXjX# 1.Q. X X X X X XC.S. X X X X X X X(.(. X X X Xc.x.4X4X4X4X4X4X4X4X4X4X4X4X4X4X4X4X4X4X4X4X4X;Xw.# jXjXjXjXjXjXjX",
"jXjXjXjXjXjXjXjXjXO @.S. X X X(.d.d.(. X X X X X X X X X X X Xl.x.4X4X&X=X4X4X4X4X4X4X4X4X4X4X4X4X4X4X4X[.*.O jXjXjXjXjXjXjXjXjX",
"jXjXjXjXjXjXjXjXjXjXjX  [ g.(.(.l.l.(. X X X X X X X X X X X Xl.x.4X,XK.XX4X4X4X4X4X4X4X4X4X4X4X4X2XH...  jXjXjXjXjXjXjXjXjXjXjX",
"jXjXjXjXjXjXjXjXjXjXjXjXjX  ^ q./.(. X X X X X X X X X X X X Xg.x.4X'.K.1X4X4X4X4X4X4X4X4X;X).{.x._   jXjXjXjXjXjXjXjXjXjXjXjXjX",
"jXjXjXjXjXjXjXjXjXjXjXjXjXjXjX  * 3./. X X X X X X X X X X X Xy.b.4XXXT.2X4X4X4X4X4X4X4X2XI.>.&   jXjXjXjXjXjXjXjXjXjXjXjXjXjXjX",
"jXjXjXjXjXjXjXjXjXjXjXjXjXjXjXjXjX  $ -.!. X X X X X X X(.J./.r.b.4X2X2X4X2X2X4X4X4X4X;X4.#   jXjXjXjXjXjXjXjXjXjXjXjXjXjXjXjXjX",
"jXjXjXjXjXjXjXjXjXjXjXjXjXjXjXjXjXjXjX  + *.P. X X X X X/.d.P.t.z.4X4X4X2X'.XX4X4X$X<.@   jXjXjXjXjXjXjXjXjXjXjXjXjXjXjXjXjXjXjX",
"jXjXjXjXjXjXjXjXjXjXjXjXjXjXjXjXjXjXjXjXjX  . o.V. X X X(.P./.t.k.4X4X4X2X{.;X'.#.X   jXjXjXjXjXjXjXjXjXjXjXjXjXjXjXjXjXjXjXjXjX",
"jXjXjXjXjXjXjXjXjXjXjXjXjXjXjXjXjXjXjXjXjXjXjX8 > [ f.(. X X Xt.k.4X4X4X2XH. ., 9 jXjXjXjXjXjXjXjXjXjXjXjXjXjXjXjXjXjXjXjXjXjXjX",
"jXjXjXjXjXjXjXjXjXjXjXjXjXjXjXjXjXjXjXjXjXjXjX2 p u 0 ; 3./. Xp.z.4X1Xa./ q g s 2 jXjXjXjXjXjXjXjXjXjXjXjXjXjXjXjXjXjXjXjXjXjXjX",
"jXjXjXjXjXjXjXjXjXjXjXjXjXjXjXjXjXjXjXjXjXjXjX3 s v v j e < %.*.,.,.1 y k 6X6XN 3 jXjXjXjXjXjXjXjXjXjXjXjXjXjXjXjXjXjXjXjXjXjXjX",
"jXjXjXjXjXjXjXjXjXjXjXjXjXjXjXjXjXjXjXjXjXjXjX3 z J W S n d f w r h K 6X0XdXrXC 3 jXjXjXjXjXjXjXjXjXjXjXjXjXjXjXjXjXjXjXjXjXjXjX",
"jXjXjXjXjXjXjXjXjXjXjXjXjXjXjXjXjXjXjXjXjXjXjX3 z P 7XR 6XA b v I ! wXsXeXgXuXC 3 jXjXjXjXjXjXjXjXjXjXjXjXjXjXjXjXjXjXjXjXjXjXjX",
"jXjXjXjXjXjXjXjXjXjXjXjXjXjXjXjXjXjXjXjXjXjXjX3 z Q 8XP 8XU R W yXyXgXaXrXyXpXC 3 jXjXjXjXjXjXjXjXjXjXjXjXjXjXjXjXjXjXjXjXjXjXjX",
"jXjXjXjXjXjXjXjXjXjXjXjXjXjXjXjXjXjXjXjXjXjXjX3 z 8X8XP 8XT Q Q eXyXdXiXuXrXhXC 3 jXjXjXjXjXjXjXjXjXjXjXjXjXjXjXjXjXjXjXjXjXjXjX",
"jXjXjXjXjXjXjXjXjXjXjXjXjXjXjXjXjXjXjXjXjXjXjX3 z E 8XP Q 6X6XH 9XdXdXuXsXrXhXC 3 jXjXjXjXjXjXjXjXjXjXjXjXjXjXjXjXjXjXjXjXjXjXjX",
"jXjXjXjXjXjXjXjXjXjXjXjXjXjXjXjXjXjXjXjXjXjXjX3 x J 8XW I 8XY D 5XgXaXyXhXrXaXZ 3 jXjXjXjXjXjXjXjXjXjXjXjXjXjXjXjXjXjXjXjXjXjXjX",
"jXjXjXjXjXjXjXjXjXjXjXjXjXjXjXjXjXjXjXjXjXjXjX3 c F 8X8XL 8XJ C Y uXpXyXhXpXuXC 3 jXjXjXjXjXjXjXjXjXjXjXjXjXjXjXjXjXjXjXjXjXjXjX",
"jXjXjXjXjXjXjXjXjXjXjXjXjXjXjXjXjXjXjXjXjXjXjXjXt z 6X8XL 8XG B P tXpXyXhXfXH i jXjXjXjXjXjXjXjXjXjXjXjXjXjXjXjXjXjXjXjXjXjXjXjX",
"jXjXjXjXjXjXjXjXjXjXjXjXjXjXjXjXjXjXjXjXjXjXjXjXjX3 7 l S 8XP M D tXaXwXV t 3 jXjXjXjXjXjXjXjXjXjXjXjXjXjXjXjXjXjXjXjXjXjXjXjXjX",
"jXjXjXjXjXjXjXjXjXjXjXjXjXjXjXjXjXjXjXjXjXjXjXjXjXjXjX3 5 a F m Z qXc 6 3 jXjXjXjXjXjXjXjXjXjXjXjXjXjXjXjXjXjXjXjXjXjXjXjXjXjXjX",
"jXjXjXjXjXjXjXjXjXjXjXjXjXjXjXjXjXjXjXjXjXjXjXjXjXjXjXjXjXjX3 5 4 3 jXjXjXjXjXjXjXjXjXjXjXjXjXjXjXjXjXjXjXjXjXjXjXjXjXjXjXjXjXjX"
};
