/* XPM */
static char *result[] = {
/* columns rows colors chars-per-pixel */
"64 64 233 2 ",
"   c #090909",
".  c gray2",
"X  c #1D1D1D",
"o  c gray7",
"O  c #1A0000",
"+  c #270000",
"@  c #330000",
"#  c #3D0000",
"$  c #3B0A0A",
"%  c #2F1919",
"&  c #060D28",
"*  c #3D003D",
"=  c #360035",
"-  c #1C2A2A",
";  c #212121",
":  c #202E2E",
">  c #2C2C2C",
",  c #233333",
"<  c #343435",
"1  c #393939",
"2  c #393039",
"3  c #362836",
"4  c #430000",
"5  c #4C0000",
"6  c #540000",
"7  c #5A0000",
"8  c #4A1313",
"9  c #630000",
"0  c #6D0000",
"q  c #6F0D0D",
"w  c #710000",
"e  c #7B0000",
"r  c #701616",
"t  c #712727",
"y  c #6D3435",
"u  c #5B3B0C",
"i  c #3C443C",
"p  c #3F4B00",
"a  c #686700",
"s  c #73563D",
"d  c #694A29",
"f  c #4D530B",
"g  c #342059",
"h  c #440044",
"j  c #4B004B",
"k  c #470B47",
"l  c #4C1A4C",
"z  c #460056",
"x  c #510051",
"c  c #590059",
"v  c #540856",
"b  c #541554",
"n  c #581B58",
"m  c #50004F",
"M  c #4E2B4E",
"N  c #4D214D",
"B  c #483648",
"V  c #522252",
"C  c #5B235B",
"Z  c #572C57",
"A  c #5A355A",
"S  c #583A58",
"D  c #5E0061",
"F  c #5F0F63",
"G  c #5E1761",
"H  c #620065",
"J  c #65006A",
"K  c #6A006C",
"L  c #600B65",
"P  c #6D0071",
"I  c #79007B",
"U  c #5E3C67",
"Y  c #663866",
"T  c #6B266B",
"R  c #60005F",
"E  c #114444",
"W  c #305454",
"Q  c #356767",
"!  c #454545",
"~  c #4A4A4A",
"^  c #4A474A",
"/  c #485848",
"(  c #574557",
")  c #545454",
"_  c #5B5C5B",
"`  c #545D54",
"'  c #444B54",
"]  c #72514E",
"[  c #596459",
"{  c #4E634E",
"}  c #78624F",
"|  c #664866",
" . c #675767",
".. c #774577",
"X. c #4B6363",
"o. c #566565",
"O. c #636363",
"+. c #676D67",
"@. c #6B6C6C",
"#. c #6D636D",
"$. c #756967",
"%. c #697669",
"&. c #6B7676",
"*. c #737473",
"=. c #7C7C7C",
"-. c #737A77",
";. c #776C74",
":. c #830000",
">. c #8C0000",
",. c #950000",
"<. c #9C0000",
"1. c #A30000",
"2. c #AB0000",
"3. c #B30000",
"4. c #BB0000",
"5. c #B21717",
"6. c #8A300A",
"7. c #A33800",
"8. c #B13E00",
"9. c #842D23",
"0. c #C40000",
"q. c #CD0000",
"w. c #D40000",
"e. c #DB0000",
"r. c #E30000",
"t. c #EB0000",
"y. c #F20000",
"u. c #FE0000",
"i. c #FF0E0E",
"p. c #814816",
"a. c #A84500",
"s. c #B74800",
"d. c #A4530B",
"f. c #B45400",
"g. c #BB5400",
"h. c #BC5B00",
"j. c #B47238",
"k. c #C14A00",
"l. c #C4670C",
"z. c #F76D00",
"x. c #C37938",
"c. c #8B7050",
"v. c #887B70",
"b. c #A76A48",
"n. c #798879",
"m. c #6E866E",
"M. c #A6B700",
"N. c #D2C900",
"B. c #E6DB00",
"V. c yellow",
"C. c #E29768",
"Z. c #73738A",
"A. c #820082",
"S. c #8A008C",
"D. c #860088",
"F. c #940095",
"G. c #955895",
"H. c #8A688A",
"J. c #927392",
"K. c #788587",
"L. c #7C9393",
"P. c #729999",
"I. c #71878F",
"U. c #848484",
"Y. c #8D848D",
"T. c #8C8C8C",
"R. c #878D87",
"E. c #8B958B",
"W. c #849595",
"Q. c #8C9797",
"!. c #8B989A",
"~. c #939494",
"^. c #959B95",
"/. c #999A99",
"(. c #93999C",
"). c #938C8E",
"_. c #99A799",
"`. c #9CB19C",
"'. c #BAA898",
"]. c #9A9CB3",
"[. c #B988B9",
"{. c #97A6A6",
"}. c #9CB8B8",
"|. c #95AFB1",
" X c #A4A4A4",
".X c #ABACAB",
"XX c #A5ABA4",
"oX c #B5AEA8",
"OX c #ACB8AC",
"+X c #ACB3B5",
"@X c #ABBBBB",
"#X c #A7B9BA",
"$X c #B4B4B4",
"%X c #BBBBBB",
"&X c #B6B9B9",
"*X c #A1AAB1",
"=X c #C9AA8F",
"-X c #BEC7BE",
";X c #ADC8AD",
":X c #A9BBC3",
">X c #B6B8D4",
",X c #A7C8C6",
"<X c #B9C4C4",
"1X c #B6CDCD",
"2X c #BAC8C8",
"3X c #B9C3CB",
"4X c #ABD8D8",
"5X c #BBD8D7",
"6X c #B4C3D0",
"7X c #BBE2E2",
"8X c #B5E2E2",
"9X c #B9F1F1",
"0X c #C1C1C1",
"qX c #C9CACA",
"wX c #C4D2D2",
"eX c #C3DDDD",
"rX c #C9D9D7",
"tX c #D3D3D3",
"yX c #D8DADA",
"uX c #D7DAD7",
"iX c #C8D0CF",
"pX c #CDE2CD",
"aX c #C5E1DE",
"sX c #DEE3DE",
"dX c #CBE2E2",
"fX c #C9E8E7",
"gX c #D4E5E5",
"hX c #CBF4F0",
"jX c #D8F5F4",
"kX c #D3F2EF",
"lX c #E5EAEA",
"zX c #E8FDFD",
"xX c #FDFDFD",
/* pixels */
"1 1 1 1 1 1 1 1 1 1 1 1 1 1 1 1 1 1 1 1 1 1 1 1 1 1 1 1 1 1 1 1 1 1 1 1 1 1 1 1 1 1 1 1 1 1 1 1 1 1 1 1 1 1 1 1 1 1 1 1 1 1 1 1 ",
"_ > _ ! ~ ^ ! ! ) ! ~ ^ ! ! ~ ) ! 1 ! ^ ! ! ~ ! ~ ) ) ) ) ) ~ ! ^ ^ ! ^ ~ ! ! ) ) ) ) ) ) ) ^ ! ^ ~ 1 1 1 ! ! ) ) ! ! ^ ~ ^ > _ ",
"E u.t.q.w.w.w.w.w.w.w.w.,.W W ] u.t.w.w.w.w.w.w.w.w.w.w.w.w.w.w.w.w.e.0.y , W 5.u.t.t.r.r.r.e.r.r.w.w.w.w.w.0.q.q.q.4.4.0.3.W 1 ",
"g V.4.2.2.r.w 2.r.e e.<.6 , ' ] u.1.>.3.>.3.,.2.>.3.1.2.2.<.<.<.,.q.4.>.% i W 5.4.4.3.0.3.2.w.0 0.e 0.2.w.e 3.2.0 w.:.w.>.V.& ~ ",
"B.N.a >X:X$X&X$X$X$X$X$X$X$X$X$X$X$X$X$X$X$X$X$X&X$X$X$X$X$X$X$X$X$X$X$X$X$X$X$X$X$X$X$X$X$X$X$X&X$X$X$X$X$X&X$X$X$X+X>XN.B.a ' ",
"b.M.p Z.*.H.=.=.=.=.=.=.=.=.=.=.=.=.=.=.=.=.=.=.=.=.=.=.=.=.=.=.=.=.=.=.=.=.=.=.=.=.=.=.=.=.=.=.=.=.=.=.=.=.=.=.Z.@.@.Z.f C.f ' ",
"W f 4.P.=.Z.=./././././././././././././././././././././././././././././././././././././././.^./././././././././.v.@.K.!.@ C.& ) ",
"W t.9 ,Xm.i.<.+ # o.w w 0 w w 0 0 w 0 w 0 0 w w w 0 0 w 0 w 0 w 0 0 w 0 0 w w w 0 w 0 w w 0 w w 9 <.1.u.y.W.# # @ -.yX-.6 4 : ~ ",
"W e.1.4X&.2.hX/.O.@ W.$XqXtX%X%X$X$X$X$X$X$X$X$X$X$X$X$X$X$X$X$X$X$X$X$X$X$X$X$X$X$X$X$X$X$X$X0X0X0X0XiX!.@ =.+.|.y.K.I.6 4 : ~ ",
"W >.6 fX{.O +XqX~.*.)./..X XU.=.$XuX%XoX$X$X$X$X$X$X$X$X$X$X$X$X$X$X$X$X$X$X$X$X$X$X$X$X$X&X_.K S %X%XXX XoXO. XjX2.&.!.@ 4 : ) ",
"~ ) . xX+XO +X.XqX).*.=. X~.B c n.%XyXqX%X%X&X$X$X$X$X$X$X$X$X$X$X$X$X$X+X$X$X$X$X$X+X>XqX X%.L h U..X.X/.~. XsX!.+ K.%X  X > ~ ",
"_ > X xX%X1 *.{.%X0XT.-.n.U.h c c v E.%XtX%X0X0X0X&X-XH.b %.M m m z 9.l.z.C.:X$XoX%XqX/.%.F c x h )././././.tXtXo.! T.qX  > ; _ ",
"y.w.e.4XlXO !./..X&X0X).#.[ B h m x c n E.$X$X$X$X$X-XH.* x x j | U 9.h.g.z.=X&X%X X%.G c x x x 2 E././. X%XqX$XW.+ {.5X5 @ t.y.",
"4.e e 7XlX6 }.T./.OX&X) c n.[ B h j m x v c C R./.%X%X_.S j m x v z 6.b.*X%X_.-.n H c c x x x 1 @.n.x ~  XqX.XT.W.+ $XdX5 4 0.2.",
":.2.w 5XkX2.,X~.Y./.) P c / -.[ B h j h c A.m c n n. XqXH.h m x x h | +XXX-.C H c A.R m x j B *.[ K J D ) .X X*.{.7 +XdX5 5 2.:.",
"9 3.1.7X2X,.7X~.T.E.* J P H v / +.i 3 h m K h c c j ..pXH.h x m x h H.pX..c H c j J x h 2 i O./ k D D P H /.~.*.|.9 +XdX4 5 :.0 ",
"2.:.e dX3Xw kX X^.T.= j J P D D v / ) 3 * h j h m l n.tXH.* x x m * H.iXn.k h j j h j 3 ~ / k j c D K P J ).n.T.|.7 +XdX5 5 e 2.",
"9 4.4 dX2X6 zX.X.X^.1 h h J P P D c h * * * h h Z XX0X_.A j m m m j S _.0XXXZ h j h * * h h j v c P P P ^ T.=.U.#X7 <XdX4 5 ,.0 ",
"9 q.4 dX2X6 zX%X+X~._ ! j c H H K D c J = * * U Z.j `.J.* m m m x x * J.`.k ;.Y * * h c j h x D K K P ~ =.=.T.U.1X9 2XdX5 6 w w ",
"# 5 # fX2X6 zXyX^ j n.~ ) ! c H H J H A.h * h h j h ..pXH.h m m m h H.pX..* j h h h x K c x H H P ( K.@.! i _ /.1X7 <XgX+ 7 # 4 ",
"> > o tX2X7 aXsX* j h / ) ) ` B H H K R A.h m j j j A n.A m x m m j A n.A h j j j h J R m R H B R.U.@./ * * = /.1X7 <XyX  X > > ",
") ) < tX2X7 aXsXj c m h k = i ^ ^ `  .c c c x h h j x m m m x x m x x j h j h j h j j c S [ T.U.[ m j * * * = .X5X7 <XyX. > - _ ",
"Q u.y.9XrX9 kX&Xm D j x h h h * h h K F.j c c h j x x x m m x x x m x j h j h h j c j F.K m c x x j * * h * h OX1X7 <XdX5 9 - _ ",
"Q u.7 zXgX:.zX0Xh H c x h h * * h h c D.m c x m m m m x z m x x m x x x j h m m c c m F.K c c x j j * * * h j ^.5X0 <XdX5 # - _ ",
"E u.<.hXrXw kX~.@.x H j x h * h j * x P c x m x m m m V { _ @.*.@._ ` V j j c c c c m A.H c x h h h * * * h +.(.1X0 <XaX6 4 , 1 ",
"W e.# fX2X0 aX~./.+.B c m h h j m h m H J j m m x x j A | D.S.D S.D.| A j c c c c x I J c x j h j * h * 1 O./.Q.5Xe <XdX5 # , ~ ",
"W w.2.8X3X7 fX= c / +.*.@.O.o.) ~ 1 3 j x J A.j m m j S G.S.J P J D.G.( x x x j I K x c ( ` ~ ! 1 1 ! ) @./ D D hX>.wXjX5 4 : ~ ",
"Q r.6 1X;X7 5X* j c c c c j j x h m h m h m J D.H j x M U P K P P P Y M m x H D.K x c c m h h j h h j h j x D c zX>.gXzX5 # : _ ",
"W t.,.4X@X6 5X* j j c c c j m h m h j j x x x x m m j S G.S.K P J S.G.( x x c x c c c x j h j h j h h m c c D m kX>.iXkX5 # : ~ ",
"Q 4.,.}.{.@ -X* x c m c m c m m x x m m m x x x m m m M S F.T M F.S.A M j c m c c c m m j j h j h j h m j D P m jXe wXkX5 # : ) ",
"^ ^ X 0X&X# eX* x m c j c m m x x m b ) j x j V ( j j Y m.C C Z I Z m.Y x x ^ C x m m ) l h j h h j h x j D H = fX0 <XuX  X > ^ ",
") ) ! -X@X6 5X` j x m m m m m j { ;.j j x x n ~ j m x l %.U.@.^ +.U.%.l x j c ( V x h m h #.{ k j h m m c H x ` dX7 <XuX. > ; _ ",
"4.4.4.8X2X7 aX^._ j x j j / =.#.j x x x j Z #.j x m m x m N %.U.+.N m m m c x j #.Z j j j h j #.=./ j j c c ) /.eX7 >XdX5 4 w.4.",
"1.3.<.7X2X7 eX$X$X~./././.O.h x j m x j C #.j x m x x x x x m m x m x m m z m m j #.V j j j j h h  ._././.).&XXX1X5 +X5X5 4 3.1.",
"2.w :.7X2X7 eX$X~./.+.j x x m x x x m C @.j x x x z x m m x m m m x x x x x m m x j #.V j j j h j c c x +./././.#X4 {.;X5 6 0 2.",
">.w 2.7X2X6 aX%X* j m x x x x x x j n @.j x x Z  .C  .j x m m m x m m j  .C | A j x j @.N j j j c c c c c x * ~.*X@ ^.|.5 6 0 >.",
"2.:.0 dX2X6 aX-X* m x j m x m x j n @.j x j b n.^.( j x x x x m x m m m j U ^.n.n j x j @.n j x j c c c c m * /.@X4 {.@X5 5 >.2.",
"2.:.0 7X2X0 eX%XO.h x x x x x j b *.j x x j Y Y.h x x x x x x m x x m m x x h Y.Y j x x j @.n j c c c c c j +._.#X7 {.@X5 6 0 2.",
"w 0 :.7X2X9 eX&X^.* x x x m m b *.j x m j Y Y.h x x x x x j x x m x m m m x m h Y.Y j x x j *.b j c j c j * /..X1X5 +X5X5 6 w w ",
"# # # dX2Xe 5X&X&XO.j x x j b *.j j x x x x x j x x x x x x x x x m m m x m m m x x j x x x h *.b j j c j O.$X$XaX5 <XdX4 7 # # ",
"> > o lXwXw kX0X0X$X .j m b *.j j x m j Y ).h m m x x j x x x x x m m m x x m x h Y.Y j x x x j *.b j j  .&X$X$XeX7 <XyX  X > > ",
") ! ! lXgX,.jXtXtX$X$X)././.).h x x m n ;X[.A.h x m m z Y | k x j | U m m x x h A.[.;XC j x x h Y././.~.$X$X$XoXeX7 <XyX. > ; _ ",
"E u.q.9XrX>.hX>X0XoX$X$X&X$X^.Y.h m n OX&X&XXX( j m m m j x j x x x j m m m m (  X%X&XOXn j h Y.^.$X$X$X$X$X$X0XfXw wXkX4 9 , 1 ",
"Q u.,.7X1X,.5XoX$X$X$X$X+X$.k.d.L.:X$X%X*Xc.7.z m m m m x x x x m m m m x x z z 7.c.*X&X$X0XL.d.k.$.+X&X%X<X0X0XfXe wXjX5 4 : _ ",
"W u.,.7X2Xe 5X$X$X$X$X:XoX8.f.f.f.f.f.f.f.g.d.d y z V `.J.h x m x h J.`.V z y d d.f.f.f.f.f.f.f.g.8.$XqX0X%XtXqXjX>.sXzX5 # : ~ ",
"W u.0 7X1Xw 5X$X$X$X$X$X&X$X@._ p.g.f.g.d.d s Q.%X+X-XH.h x m m m m h H.-X$X%X!.s d d.g.f.g.p._ *.OX$X$X%X0X0X0XhX>.wXkX5 4 - ) ",
"E u.,.7X2X0 dX+X$X$X$X$X$Xv.g.f.f.f.f.f.f.f.s.j.6X-XJ.h m m m m m m x h H.-X6Xj.s.s.g.g.f.f.f.f.s.v.+X$X$X$X$X<XfXe wXjX5 # , 1 ",
"Q y.,.4X@X7 1XXX XoX$X:X$Xa.d s ).k.a.} 3X%.6.x.:X| h x m m m m x x m z j | #Xx.u v.>X} a.g.).s d 8.'.:X$X$X$X$XeX7 <XdX5 4 : _ ",
"E y.,.4X&X7 1X X.X.X X.XoXu U.(.=X7.] 3X$X&X.X+.M m m x x x m m x x x x m m M +. X&X$X3X} 7.=X/.Y.u oX:X$X$X$X$XaX7 <XaX6 # , 1 ",
"X.0.4 fX2X7 eX&X$X$X$X$X$X$X$X>X'.7.} wX X@.B m m x m x x c x m m m x j m m m m M +..XwX} 7.'.:X+X&X$X$X$X$X$X$XeX7 <XgX@ 4 - _ ",
"< )   yX2X7 }.%X$X$X$X$X$X$X$X&X$Xv.l.].* x x x x j x k |  .j x j  .| j x x x x x x h ].l.v.+X&X$X$X$X$X$X$XoX%X#X7 <XyX  o > 1 ",
") > ~ iX2X7 L.<X$X$X$X$X$X$X$X$X$X$X:X.X@.B x x x j l _.J.h x j x h J._.N j x x x B @. X$X$X$X$X$X$X$X$X$X$X$X>XL.7 <XyX. > > _ ",
"w.w.w.4X<X-.0 L./.%X$X&X$X$X$X$X$X$X$X$X&X.X@.B j b E.OX| h x x x j S OX~.l j B @.XX&X$X$X$X$X$X$X$X$X$X$X&X_.W.0 *.%XeX5 # q.e.",
"w 4.# L.0X%X&.0 w w L./.$X$X$X$X$X$X$X$X$X$X$X$X$X$X-XH.h m x x x x h H.-X$X$X$X$X$X$X$X$X$X$X$X$X$X%X/.{.w 0 w -./.qXL.6 5 w e ",
"3.w :.5 L.0X$XOX(.*.0 w 0 q W._.&X$X$X$X$X$X$X$X$X$X%X_.M j x x x j M _.%X$X$X$X$X$X$X$X$X$X$X XW.q w 0 0 R.(.oX$X<XW.5 6 7 @ 4.",
"2.e 6 6 7 X.J.-X$X&X$X&X~.;.0 w q W. X&X$X$X$X$X$X$X$X%X^.M j x j M ^.%X$X$X$X$X$X$X$X&X XW.q 0 w $./.$X$X$X$X>XJ.X.6 7 6 0 :.2.",
"w 2.5 7 7 6 7 X.U.0X&X$X$X$X$X~.$.0 0 r W. X%X&X$X$X$X$X%X^.M h V ^.%X$X$X$X$X$X&X XW.r q 0 $.Q.$X&X$X$X-XU.o.6 6 6 6 6 9 9 4.w ",
"6 4.0 3.6 6 0 6 7 6 7 X.U.0X$X$X$XoXQ.$.0 0 r W..X&X$X$X&X%X).) T.%X$X&X$X$X.XW.t w 0 ] Q.$X&X&X$X%XU.o.6 7 6 6 6 6 e 4 4.7 4.6 ",
"6 4.w e 6 1.<.7 6 7 7 6 7 6 X.T.%X&X$X&X.XQ.] w w 0 t W. X$X&X$X&X&XXXW.t w w 0 ] ~..X&X$X$X0XT.o.6 7 7 7 7 6 6 9 3.w 6 7 0.@ 0 ",
"e 2.# 0.6 9 ,.7 :.e 2.5 7 7 7 7 6 $ o.E.%X&X$X&X.XQ.] w w y !./.Q.y w w ] Q..X&X$X$X%X~.o.4 % > , 6 7 7 4 3.5 3.9 3.9 3.5 4.9 e ",
"5 5 5 5 5 5 5 5 5 5 5 5 5 5 5 5 # $ X X <  .).0X$X$X&X.XW.] w w w y Q..X$X$X%X~.o.8 5 5 4 4 X > , 7 4 # 5 5 5 5 5 5 5 5 5 5 5 5 ",
"> > > > > > > > > > > > > > > > > > > X X ; X ; 1 O.~.%X$X$X$X$X&X$X$X%X/.O.> X X X X > ; ; X > > > , > > > > > X ; ; ; X > > > ",
"> O.> O.> 1 1 ~ ^ ~ ! ^ ) < 1 1 < > > > > > > ; X ; ; X < O./.0X/.#.1 ; X ; ; X > > > > > > > > 1 1 ^ ^ ) ^ ~ ! ^ ! < i ~ ^ ~ 1 ",
") ) ) ) ) ) ) ) ) ) ) ) ) ) ) ) ) ) ) ! < 1 < > > X ; X ; ; ; ; ; X ; X ; ; ; ; X > < 1 1 ! ! ~ ) ) ) ) ) ) ) ) ) ) ) ) ) ) ) ) "
};
